<?xml version="1.0" encoding="utf-8"?>
<!-- Generator: Adobe Illustrator 19.0.1, SVG Export Plug-In . SVG Version: 6.00 Build 0)  -->
<svg version="1.1" id="Слой_1" xmlns="http://www.w3.org/2000/svg" xmlns:xlink="http://www.w3.org/1999/xlink" x="0px" y="0px"
	 viewBox="0 0 2000 600" style="enable-background:new 0 0 2000 600;" xml:space="preserve">
<g>
	<path d="M605.1946411,191.750885h-32.9144897l-76.0578308,215.6469727h30.0854187l21.5702515-61.3836975h81.718811
		l21.2809448,61.3836975h30.9283447L605.1946411,191.750885z M556.487854,319.9733276l24.9820557-72.4017792
		c3.2233887-9.3702698,7.2525635-26.1218109,7.2525635-26.1218109h0.5375977c0,0,4.0291748,16.7515411,7.2525635,26.1218109
		l24.7136841,72.4017792H556.487854z"/>
	<path d="M225.5424805,293.8533936c12.6740112-10.1687927,17.4052734-24.0963135,17.4052734-41.8873901
		c0-16.077774-6.0567474-29.4641418-17.5157623-38.712204c-10.963028-8.8468323-26.3296356-13.5236664-44.4389496-13.5236664H110
		v199.4391174h72.0881195c19.27034,0,35.8777924-4.8678894,48.0273438-14.0784912
		c13.5904236-10.3032532,20.7744141-25.6933594,20.7744141-44.5067749
		C250.8898773,318.6803284,239.4460297,299.4496765,225.5424805,293.8533936z M149.3566742,235.9207764h31.3114014
		c14.0657959,0,22.4637299,7.8121643,22.4637299,20.8974609c0,12.9580994-8.8119202,21.6643677-21.9271393,21.6643677h-31.8479919
		V235.9207764z M184.65271,363.842865h-35.2960358v-51.1452332H184.65271c15.7472839,0,25.9221649,9.9855042,25.9221649,25.4398804
		C210.5748749,353.9927979,200.6423035,363.842865,184.65271,363.842865z"/>
	<path d="M385.789917,323.7582703c-2.4533997-4.5930176-4.3598328-7.5257874-5.4526978-9.091095
		c19.1849976-8.6575317,31.9480286-30.2617798,31.9480286-54.4190369c0-26.1151733-12.3634644-46.214325-33.8910217-55.1318054
		c-8.9895325-3.9264526-19.1190491-5.3862-37.3757629-5.3862h-65.7891846v199.4391174h38.7346497v-73.1575012h29.7114563
		l39.8634033,73.1575012h43.6242981L385.789917,323.7582703z M343.5700073,289.7338257h-29.6060791v-54.0023041h23.6733398
		c9.6418152,0,15.3487549,0.8279724,20.3985901,2.9721375c11.6216125,4.5562744,14.0614319,15.3014984,14.0614319,23.513504
		C372.09729,279.4475403,361.4328003,289.7338257,343.5700073,289.7338257z"/>
	<path d="M1714.6444092,322.2573547c-2.4533691-4.580719-4.3598633-7.5056763-5.4527588-9.0667725
		c19.1850586-8.6344299,31.9481201-30.1809082,31.9481201-54.2734985c0-26.0453186-12.3635254-46.0908508-33.8911133-54.9845123
		c-8.989502-3.9159088-19.1190186-5.3717804-37.3757324-5.3717804h-65.7891846v198.9059753h38.7346191v-72.9619446h29.7116699
		l39.8632813,72.9619446h43.6242676L1714.6444092,322.2573547z M1672.4244385,288.5988159h-29.6060791v-54.0022736h23.6734619
		c9.6418457,0,15.3486328,0.8279572,20.3985596,2.9721222c11.6217041,4.5562897,14.0612793,15.3015137,14.0612793,23.5135193
		C1700.9516602,278.312561,1690.2872314,288.5988159,1672.4244385,288.5988159z"/>
	<polygon points="913.4841309,327.3815002 826.0909424,199.7301331 789.6295776,199.7301331 789.6295776,398.7908936 
		829.0702515,398.7908936 829.3530273,271.426239 916.7478027,398.7908936 951.881897,398.7908936 951.881897,199.7301331 
		913.4209595,199.7301331 	"/>
	<path d="M1044.9868164,197.9933014h-66.3823853v200.3246918h66.3823853c60.7408447,0,98.473999-38.4862366,98.473999-100.4400635
		C1143.4608154,236.2668762,1105.7276611,197.9933014,1044.9868164,197.9933014z M1041.8016357,362.5950928h-27.2560425V234.1897583
		h27.2560425c39.3015137,0,62.7652588,23.8997803,62.7652588,63.9318848
		C1104.5668945,339.0951538,1081.6895752,362.5950928,1041.8016357,362.5950928z"/>
	<path d="M1333.6383057,224.3198853c-18.7727051-18.9896393-44.890625-29.4477844-73.543457-29.4477844
		c-28.65271,0-54.7706299,10.4581451-73.5444336,29.4477844c-18.4890137,18.7031403-28.6711426,44.3338013-28.6711426,72.1720886
		c0,28.6268311,10.1766357,54.9622803,28.6556396,74.1573792c18.7626953,19.4900208,44.887207,30.2234802,73.5599365,30.2234802
		c28.6728516,0,54.7962646-10.7334595,73.55896-30.2234802c18.4790039-19.1950989,28.6550293-45.5305481,28.6550293-74.1573792
		C1362.3088379,268.6536865,1352.1260986,243.0230255,1333.6383057,224.3198853z M1260.0948486,364.3630371
		c-35.5645752,0-62.3841553-29.0020142-62.3841553-67.4604187c0-36.9059448,26.8195801-64.7367554,62.3841553-64.7367554
		c35.5646973,0,62.3831787,27.8308105,62.3831787,64.7367554
		C1322.4780273,335.3610229,1295.6595459,364.3630371,1260.0948486,364.3630371z"/>
	<path d="M1550.2508545,224.3198853c-18.7727051-18.9896393-44.890625-29.4477844-73.543457-29.4477844
		s-54.770752,10.4581451-73.5445557,29.4477844c-18.4888916,18.7031403-28.6710205,44.3338013-28.6710205,72.1720886
		c0,28.6268311,10.1766357,54.9622803,28.6555176,74.1573792c18.7626953,19.4900208,44.8873291,30.2234802,73.5600586,30.2234802
		s54.7962646-10.7334595,73.55896-30.2234802c18.4790039-19.1950989,28.6550293-45.5305481,28.6550293-74.1573792
		C1578.9213867,268.6536865,1568.7386475,243.0230255,1550.2508545,224.3198853z M1476.7073975,364.3630371
		c-35.5646973,0-62.3841553-29.0020142-62.3841553-67.4604187c0-36.9059448,26.819458-64.7367554,62.3841553-64.7367554
		s62.3831787,27.8308105,62.3831787,64.7367554C1539.0905762,335.3610229,1512.2720947,364.3630371,1476.7073975,364.3630371z"/>
	<path d="M1834.524292,280.7052612c-18.9145508-7.966095-35.1767578-13.9116516-35.1767578-28.5111542
		c0-12.5032654,11.5748291-19.8675385,28.5087891-19.8675385c14.064209,0,28.9066162,8.4570465,40.1057129,18.5566864
		l1.6049805,1.4474182l18.159668-32.7726746l-0.9864502-0.9027557
		c-14.8334961-13.5764465-30.5092773-23.2156525-58.1468506-23.2156525c-40.0258789,0-67.9804688,24.0174561-67.9804688,58.405777
		c0,35.2598877,29.0285645,48.0148621,54.6411133,59.2689819c19.3234863,8.4907227,35.4438477,15.6859436,35.4438477,30.866272
		c0,12.5038452-10.8289795,19.9095154-27.0977783,19.9095154c-18.3370361,0-35.631958-13.2343445-45.8800049-22.5526428
		l-1.4110107-1.2820129l-22.9682617,30.5600891l1.0252686,1.030304
		c17.1998291,17.2843628,39.7244873,29.2269592,69.2972412,29.2269592c45.8249512,0,66.3366699-29.8873596,66.3366699-59.5073547
		C1890,304.9711609,1860.4937744,291.6419373,1834.524292,280.7052612z"/>
	<path d="M438.4428101,93.2910156v413.4179688h301.1452637V93.2910156H438.4428101z M714.6184692,481.7393188H463.4124756
		V118.2606659h251.2059937V481.7393188z"/>
	<path d="M686.8196411,307.992218c2.0004272,3.2314148,5.5668335,5.3911743,9.6466675,5.3911743
		c6.2683105,0,11.3498535-5.0814514,11.3498535-11.3498535c0-6.2683105-5.081543-11.3498535-11.3498535-11.3498535
		c-4.079834,0-7.6462402,2.1598206-9.6466675,5.3911743h-30.1723633v5.9586792v5.9586792H686.8196411z"/>
	<path d="M1132.1765137,212.5197754l0.0325928-1.762619c0.2171631-11.6732025,6.6525879-16.0144043,14.8005371-21.5109558
		c0.5227051-0.3549957,1.0792236-0.7151947,1.6488037-1.083847c3.4926758-2.2612915,7.4470215-4.8216858,7.4470215-8.7753754
		c0-3.044754-1.7944336-4.8632965-4.7982178-4.8632965c-2.8009033,0-5.4315186,1.0006104-5.7137451,8.2604523l-0.0637207,1.6631317
		h-12.2752686v-2.7099152c0-11.3630676,7.2143555-18.7054749,18.3791504-18.7054749
		c10.1673584,0,17.2685547,6.4568787,17.2685547,15.7016754c0,8.1271515-4.4289551,11.8142853-10.2181396,15.789444
		c-0.6865234,0.4700775-1.4134521,0.9499054-2.1636963,1.4433899c-2.2977295,1.5142517-4.869873,3.2079468-6.8828125,5.0615845
		h19.526001v11.491806H1132.1765137z"/>
</g>
</svg>
